<svg width="2134" height="3445" viewBox="0 0 2134 3445" fill="none" xmlns="http://www.w3.org/2000/svg">
<path d="M89.7018 3080L414.212 3126.16L268.664 3356.49L468.255 3206.61L511.154 3390.99L557.406 3219.29L731.158 3302.22L646.004 3159.13L931.764 3145.21L757.522 3050.24L799.59 2862.35L590.885 2983.93L595.359 2799.02L523.13 2974.3L309.584 2787.48L443.201 3050.24L89.7018 3080Z" fill="#FF7F81"/>
<path d="M2025.36 2583.14L1788.68 2474.78L1771.38 2701.73L1629.51 2463.4L1429.7 2452.14L1562.53 2254.43L1370.81 1950.61L1688.03 2114.07L1804.9 1834.66L1815.37 2101.55L1987.25 1988.81L1944.03 2172L2095.19 2182.8L1960.64 2360.93L2025.36 2583.14Z" fill="#58B0FF"/>
<path d="M562.643 1246.04L451.627 1040.17L316.32 1193.52L398.348 889.964L206.495 829.54L408.807 759.718L435.869 438.059L574.798 727.043L809.904 589.997L681.036 727.043L857.164 799.269L609.926 885.71L829.506 996.817L577.697 988.566L562.643 1246.04Z" fill="#58B0FF"/>
<path d="M843.303 2055.42C812.147 2081.76 739.916 2108.4 673.415 2077.57C558.04 2024.07 579.268 1892.3 646.604 1902.02C681.774 1907.09 683.723 1967.26 628.633 1996.93C575.179 2025.72 476.565 2019.99 421.641 1950.39C341.272 1848.55 437.472 1714.32 530.47 1676.07" stroke="white" stroke-width="17.985" stroke-linecap="round" stroke-linejoin="round"/>
<path d="M983.912 2044.46L1014.27 2101.39L1052.22 2063.44L1037.04 2135.55L1090.18 2165.91H1027.56L995.298 2319.61L983.912 2165.91H932.678L983.912 2135.55V2044.46Z" fill="#FF7F81"/>
<path d="M1313.86 1289.77L1335.43 1125.07L1368.76 1289.77L1466.79 1256.44L1404.05 1334.87L1541.3 1374.08H1394.25L1431.5 1485.84L1358.95 1413.3L1313.86 1581.92V1413.3L1202.1 1460.35L1262.88 1374.08L1157 1334.87H1280.53V1240.76L1313.86 1289.77Z" fill="#FF7F81"/>
<path d="M1880.55 962.196L1844.02 867.358L1836.05 973.136L1779.09 987.141L1844.8 1008.74L1836.48 1090.06L1882.97 1025.78L1940.42 1113.59L1914.16 1006.78L1969.34 993.218L1918.74 971.68L1924.79 904.128L1880.55 962.196Z" fill="#58B0FF"/>
<path d="M1417.34 95.0244L1506.49 202.491L1394.64 233.476L1500.5 243.341L1461.25 313.781L1524.99 272.865L1556.06 348.768L1570.17 279.253L1664.29 356.673L1608.88 273.054L1681.24 244.927L1602.94 208.209L1657.29 151.162L1584.33 185.771L1570.45 65.7038L1537.37 186.844L1417.34 95.0244Z" fill="#58B0FF"/>
<path d="M938.229 1017.95V1051.12H896.414L928.136 1075.63L903.623 1137.63L946.88 1092.93L1001.67 1152.05L969.951 1066.98H1023.3L978.602 1051.12L1001.67 996.327L955.532 1041.03L938.229 1017.95Z" fill="#FF7F81"/>
<path d="M758.966 2707.45L714.874 2529.16L617.103 2579L697.62 2477.4L607.518 2416.05L714.874 2427.55V2243.51L774.303 2416.05L873.991 2352.79L801.142 2458.23L923.835 2500.4L801.142 2513.82L847.152 2579L774.303 2529.16L758.966 2707.45Z" fill="#58B0FF"/>
<circle cx="567.302" cy="2197.47" r="21.2789" fill="#FF7F81"/>
<circle cx="21.2789" cy="21.2789" r="21.2789" transform="matrix(1 0 0 -1 1643.52 1412.65)" fill="#FF7F81"/>
<circle cx="21.2789" cy="21.2789" r="21.2789" transform="matrix(1 0 0 -1 660.279 1702.66)" fill="#FF7F81"/>
<circle cx="21.2789" cy="21.2789" r="21.2789" transform="matrix(1 0 0 -1 1761.13 779.991)" fill="#58B0FF"/>
<circle cx="632.495" cy="2272.16" r="12.8704" fill="#FF7F81"/>
<circle cx="12.8704" cy="12.8704" r="12.8704" transform="matrix(1 0 0 -1 1720.94 1300.42)" fill="#FF7F81"/>
<circle cx="12.8704" cy="12.8704" r="12.8704" transform="matrix(1 0 0 -1 567.299 2698.04)" fill="#FF7F81"/>
<circle cx="12.8704" cy="12.8704" r="12.8704" transform="matrix(1 0 0 -1 1476.16 2697.43)" fill="#FF7F81"/>
<circle cx="12.8704" cy="12.8704" r="12.8704" transform="matrix(1 0 0 -1 1357.4 2462.15)" fill="#FF7F81"/>
<circle cx="12.8704" cy="12.8704" r="12.8704" transform="matrix(1 0 0 -1 1668.23 134.823)" fill="#FF7F81"/>
<circle cx="12.8704" cy="12.8704" r="12.8704" transform="matrix(1 0 0 -1 864.812 917.748)" fill="#FF7F81"/>
<path d="M1469.71 1154.29C1511.73 1204.63 1579.42 1235.54 1635.46 1202.27C1688.09 1171.04 1660.11 1084.96 1609.12 1090.68C1586.34 1093.24 1575.17 1121.85 1591.98 1141.99C1623.49 1179.75 1709.88 1159.65 1733.69 1117.36C1783.87 1028.28 1664.92 960.287 1595.63 968.434M1595.63 968.434L1634.52 1012.46M1595.63 968.434L1644.6 932.22" stroke="white" stroke-width="17.985" stroke-linecap="round" stroke-linejoin="round"/>
<path d="M1766.85 1977.63C1749.15 1999 1708.15 2031.47 1671.4 2010.85C1609.61 1976.17 1663.63 1777.56 1730.01 1802.98C1796.39 1828.39 1662.48 2051.24 1543.19 2010.8C1429.54 1972.28 1527.98 1687.14 1604.77 1722.44C1677.54 1755.91 1532.34 1968.76 1435.86 1937.14C1339.76 1905.65 1384.62 1705.54 1525.65 1624.59" stroke="white" stroke-width="17.985" stroke-linecap="round" stroke-linejoin="round"/>
</svg>
