<svg width="207" height="24" viewBox="0 0 207 24" fill="none" xmlns="http://www.w3.org/2000/svg">
<path d="M25.4094 5.25558C27.2063 5.25558 28.6943 6.04173 29.312 6.63134L28.2732 7.89478C27.7678 7.44556 26.6447 6.82787 25.4094 6.82787C23.1352 6.82787 21.7313 8.40016 21.7313 10.534C21.7313 12.6678 23.079 14.2401 25.4374 14.2401C26.8132 14.2401 27.9924 13.5101 28.5259 13.0047L29.5086 14.3243C28.8909 14.9701 27.3467 15.8405 25.4374 15.8405C22.0963 15.8405 20.0467 13.5943 20.0467 10.5621C20.0186 7.50171 22.1244 5.25558 25.4094 5.25558Z" fill="black"/>
<path d="M35.7416 5.25558C38.83 5.25558 41.0761 7.50171 41.0761 10.534C41.0761 13.5943 38.83 15.8124 35.7416 15.8124C32.6531 15.8124 30.407 13.5663 30.407 10.534C30.3789 7.50171 32.6251 5.25558 35.7416 5.25558ZM35.7416 14.2401C37.8473 14.2401 39.3915 12.6678 39.3915 10.534C39.3915 8.40016 37.8473 6.82787 35.7416 6.82787C33.6358 6.82787 32.0916 8.40016 32.0916 10.534C32.0916 12.6678 33.6358 14.2401 35.7416 14.2401Z" fill="black"/>
<path d="M51.6891 12.6678C51.6891 14.1559 50.7345 15.5878 48.2637 15.5878H42.873V5.48019H47.9549C50.0045 5.48019 51.1837 6.74364 51.1837 8.17555C51.1837 8.98977 50.8187 9.71977 49.9203 10.3094C50.8187 10.6463 51.6891 11.2921 51.6891 12.6678ZM44.5296 7.08056V9.77592L47.7303 9.74784C48.8814 9.74784 49.471 9.10208 49.471 8.37209C49.471 7.67017 48.9657 7.08056 47.9549 7.08056H44.5296ZM48.3761 14.0155C49.5553 14.0155 50.0045 13.3697 50.0045 12.6678C50.0045 11.9097 49.471 11.2921 48.4041 11.2921H44.5576V14.0436L48.3761 14.0155Z" fill="black"/>
<path d="M58.3433 10.3936L62.8355 15.6159H60.6175L56.8552 11.1798H54.946V15.5878H53.2895V5.48019H54.946V9.66361H56.8552L60.5052 5.48019H62.7232L58.3433 10.3936Z" fill="black"/>
<path d="M67.9455 5.25558C71.0339 5.25558 73.28 7.50171 73.28 10.534C73.28 13.5943 71.0339 15.8124 67.9455 15.8124C64.857 15.8124 62.6109 13.5663 62.6109 10.534C62.6109 7.50171 64.857 5.25558 67.9455 5.25558ZM67.9455 14.2401C70.0512 14.2401 71.5954 12.6678 71.5954 10.534C71.5954 8.40016 70.0512 6.82787 67.9455 6.82787C65.8397 6.82787 64.2955 8.40016 64.2955 10.534C64.3236 12.6678 65.8678 14.2401 67.9455 14.2401Z" fill="black"/>
<path d="M84.4826 5.50827H86.083V15.6159H84.4265V8.09132L81.1134 12.5274H80.1027L76.7896 8.09132V15.6159H75.105V5.50827H76.7054L80.58 10.7024L84.4826 5.50827Z" fill="black"/>
<path d="M93.6918 9.63554C95.9098 9.63554 97.1171 10.9271 97.1171 12.6117C97.1171 14.2963 95.9098 15.6159 93.8041 15.6159H88.301V5.50827H96.1625V7.10864H89.9856V9.66361H93.6918V9.63554ZM93.7479 14.0155C94.899 14.0155 95.4325 13.3697 95.4325 12.6117C95.4325 11.8536 94.899 11.2078 93.7479 11.2078H89.9856V14.0155H93.7479Z" fill="black"/>
<path d="M106.382 15.6159L105.287 13.089H100.514L99.4194 15.6159H97.5663L101.946 5.50827H103.771L108.151 15.6159H106.382ZM101.132 11.5728H104.614L102.901 7.52979L101.132 11.5728Z" fill="black"/>
<path d="M116.939 5.50827H118.596V15.6159H116.939V11.264H111.099V15.5878H109.443V5.48019H111.099V9.66361H116.939V5.50827Z" fill="black"/>
<path d="M125.896 10.3936L130.388 15.6159H128.17L124.436 11.2078H122.526V15.6159H120.87V5.50827H122.526V9.69169H124.436L128.086 5.50827H130.304L125.896 10.3936Z" fill="black"/>
<path d="M0 10.5621C0 15.1947 3.76227 18.957 8.39492 18.957C8.50722 18.957 8.61953 18.957 8.73184 18.957V15.7562H8.39492C5.5311 15.7562 3.17266 13.4259 3.17266 10.534C3.17266 7.67017 5.50302 5.31173 8.39492 5.31173H8.73184V2.16715C8.61953 2.16715 8.50722 2.16715 8.39492 2.16715C3.76227 2.13907 0 5.90134 0 10.5621Z" fill="black"/>
<path d="M10.0795 2.30753V6.68749H8.39492C6.26109 6.68749 4.52034 8.42824 4.52034 10.5621C4.52034 12.6959 6.26109 14.4366 8.39492 14.4366H10.0795V18.8166C13.926 18.0024 16.8179 14.6051 16.8179 10.5621C16.8179 6.49095 13.926 3.09368 10.0795 2.30753Z" fill="black"/>
<mask id="path-2-outside-1_133_4" maskUnits="userSpaceOnUse" x="132.829" y="-1.03438" width="73.76" height="25.5401" fill="black">
<rect fill="white" x="132.829" y="-1.03438" width="73.76" height="25.5401"/>
<path fill-rule="evenodd" clip-rule="evenodd" d="M147.902 1.71417L137.352 3.74403C141.309 6.84455 142.911 10.636 143.019 13.6606C143.077 15.2916 142.701 16.7404 141.971 17.7171C141.221 18.7215 140.083 19.2239 138.796 18.8217C136.425 18.0809 135.647 15.9582 135.934 14.0793C136.214 12.2432 137.554 10.4088 139.632 10.2803L140.204 10.245L140.274 11.3879L139.703 11.4233C138.343 11.5074 137.295 12.7479 137.066 14.252C136.843 15.7133 137.433 17.196 139.138 17.7287C139.888 17.9633 140.546 17.712 141.054 17.0319C141.582 16.324 141.927 15.1574 141.875 13.7015C141.771 10.8138 140.105 6.94552 135.629 3.90406L134.488 3.12883L147.686 0.589661L147.902 1.71417ZM165.79 1.09206L165.397 12.3222L167.255 12.3872L167.215 13.5317L156.692 13.1632L156.732 12.0188L158.278 12.0729L165.79 1.09206ZM159.633 12.1204L164.252 12.2821L164.508 4.99487L159.633 12.1204ZM204.138 5.26188C204.81 5.81778 205.347 6.5847 205.569 7.43397L205.708 7.96511L199.183 9.96819C199.177 10.0841 199.173 10.2026 199.17 10.3237C199.19 11.5216 199.629 12.5801 200.42 13.0547C201.178 13.5101 202.519 13.5745 204.704 12.188L205.187 11.8812L205.801 12.848L205.317 13.1548C202.986 14.6345 201.14 14.8229 199.83 14.0364C198.554 13.2704 198.046 11.7257 198.025 10.3301L198.025 10.3235L196.442 10.8095L196.106 9.71484L198.098 9.10318C198.262 7.51488 198.68 6.35122 199.288 5.56165C199.96 4.6887 200.841 4.30717 201.742 4.31742C202.619 4.32741 203.468 4.70673 204.138 5.26188ZM199.298 8.73482C199.475 7.54961 199.81 6.76018 200.195 6.26033C200.65 5.66982 201.191 5.45636 201.729 5.46248C202.289 5.46886 202.893 5.71727 203.408 6.14414C203.77 6.44352 204.068 6.81362 204.266 7.20989L199.298 8.73482ZM195.234 5.73073C195.906 6.28664 196.442 7.05356 196.664 7.90283L196.803 8.43397L190.278 10.437C190.273 10.5529 190.269 10.6714 190.266 10.7926C190.285 11.9904 190.725 13.049 191.515 13.5235C192.273 13.979 193.614 14.0433 195.799 12.6568L196.282 12.35L196.896 13.3168L196.413 13.6237C194.081 15.1033 192.235 15.2918 190.925 14.5052C189.65 13.7392 189.141 12.1946 189.121 10.7989L189.121 10.7923L187.537 11.2784L187.201 10.1837L189.194 9.57203C189.357 7.98374 189.775 6.82008 190.383 6.03051C191.056 5.15756 191.937 4.77602 192.837 4.78628C193.714 4.79627 194.563 5.17559 195.234 5.73073ZM190.394 9.20367L195.361 7.67875C195.163 7.28248 194.865 6.91238 194.504 6.61299C193.988 6.18613 193.384 5.93771 192.824 5.93133C192.287 5.92522 191.745 6.13868 191.291 6.72919C190.906 7.22904 190.57 8.01846 190.394 9.20367ZM182.831 4.90022L181.763 13.7743L184.121 13.3844L185.244 4.90275L186.38 5.05309L185.247 13.6048L185.62 13.0764L186.555 13.7364L184.024 17.3249L183.088 16.6648L184.645 14.4584L181.204 15.0276L176.545 15.9052L177.646 5.24184L178.785 5.35945L177.842 14.4956L180.586 13.9788L181.694 4.76351L182.831 4.90022ZM151.623 4.59085L152.762 4.50694C153.054 6.5978 153.407 9.55729 153.481 12.4296C153.917 12.3052 154.365 12.2118 154.82 12.1552L155.389 12.0846L155.53 13.221L154.962 13.2916C154.465 13.3534 153.974 13.4665 153.495 13.6225C153.487 15.7258 153.299 17.7584 152.763 19.2873C152.477 20.1037 152.076 20.8233 151.506 21.3259C150.919 21.8436 150.185 22.1012 149.321 22.0329C148.027 21.9306 147.105 21.4182 146.715 20.5051C146.345 19.6392 146.545 18.6072 147.002 17.654C147.881 15.823 149.9 13.8637 152.344 12.8312C152.319 11.3385 152.212 9.80443 152.072 8.37137C152.013 8.52337 151.95 8.67456 151.883 8.82422C151.2 10.3342 150.008 11.7593 148.039 12.1848C147.054 12.3976 146.239 12.2486 145.641 11.7352C145.068 11.2431 144.8 10.5044 144.688 9.7639C144.464 8.28408 144.807 6.4387 145.171 5.21094L145.333 4.66197L146.431 4.98734L146.269 5.5363C145.923 6.70402 145.633 8.3584 145.82 9.59246C145.914 10.2089 146.112 10.6306 146.387 10.8664C146.636 11.0807 147.05 11.2267 147.797 11.0655C149.289 10.7432 150.245 9.6661 150.839 8.35223C151.436 7.03218 151.631 5.5452 151.623 4.59085ZM152.345 14.0879C150.343 15.0582 148.733 16.6957 148.035 18.1495C147.637 18.9774 147.587 19.6326 147.768 20.0552C147.928 20.4306 148.357 20.8079 149.412 20.8913C149.971 20.9356 150.397 20.7768 150.748 20.467C151.117 20.1422 151.432 19.6234 151.683 18.9084C152.12 17.6628 152.312 15.9642 152.345 14.0879ZM168.989 6.47734L168.774 7.00803C168.413 7.89944 168.064 9.16726 168.116 10.1326C168.142 10.6147 168.263 10.9306 168.434 11.109C168.582 11.2639 168.858 11.4069 169.436 11.3396C170.592 11.2049 171.403 10.4593 171.963 9.48446C172.527 8.50378 172.791 7.35945 172.857 6.61661L173.999 6.64317C174.068 8.2847 174.12 10.592 173.97 12.8308C174.282 12.7801 174.6 12.7489 174.92 12.7403L175.492 12.7249L175.523 13.8696L174.951 13.885C174.589 13.8948 174.227 13.9392 173.87 14.0137C173.7 15.6511 173.395 17.2261 172.855 18.3922C172.561 19.0262 172.177 19.5844 171.665 19.9545C171.135 20.3379 170.503 20.4924 169.793 20.3666C168.753 20.1819 168.013 19.687 167.757 18.8774C167.515 18.1168 167.772 17.2786 168.215 16.5474C169.056 15.1572 170.795 13.7626 172.801 13.1144C172.879 12.1184 172.912 11.0961 172.92 10.1173C172.25 11.2544 171.18 12.2892 169.569 12.477C168.748 12.5726 168.074 12.3879 167.608 11.9018C167.164 11.4393 167.005 10.8012 166.973 10.1939C166.908 8.98033 167.328 7.52759 167.712 6.57813L167.927 6.04744L168.989 6.47734ZM172.676 14.3762C171.121 14.9977 169.819 16.1077 169.194 17.1403C168.824 17.7526 168.753 18.2302 168.848 18.5314C168.928 18.7836 169.189 19.0963 169.993 19.2391C170.402 19.3115 170.719 19.2256 170.994 19.0264C171.288 18.8139 171.567 18.4472 171.816 17.9107C172.23 17.0159 172.505 15.7745 172.676 14.3762Z"/>
</mask>
<path fill-rule="evenodd" clip-rule="evenodd" d="M147.902 1.71417L137.352 3.74403C141.309 6.84455 142.911 10.636 143.019 13.6606C143.077 15.2916 142.701 16.7404 141.971 17.7171C141.221 18.7215 140.083 19.2239 138.796 18.8217C136.425 18.0809 135.647 15.9582 135.934 14.0793C136.214 12.2432 137.554 10.4088 139.632 10.2803L140.204 10.245L140.274 11.3879L139.703 11.4233C138.343 11.5074 137.295 12.7479 137.066 14.252C136.843 15.7133 137.433 17.196 139.138 17.7287C139.888 17.9633 140.546 17.712 141.054 17.0319C141.582 16.324 141.927 15.1574 141.875 13.7015C141.771 10.8138 140.105 6.94552 135.629 3.90406L134.488 3.12883L147.686 0.589661L147.902 1.71417ZM165.79 1.09206L165.397 12.3222L167.255 12.3872L167.215 13.5317L156.692 13.1632L156.732 12.0188L158.278 12.0729L165.79 1.09206ZM159.633 12.1204L164.252 12.2821L164.508 4.99487L159.633 12.1204ZM204.138 5.26188C204.81 5.81778 205.347 6.5847 205.569 7.43397L205.708 7.96511L199.183 9.96819C199.177 10.0841 199.173 10.2026 199.17 10.3237C199.19 11.5216 199.629 12.5801 200.42 13.0547C201.178 13.5101 202.519 13.5745 204.704 12.188L205.187 11.8812L205.801 12.848L205.317 13.1548C202.986 14.6345 201.14 14.8229 199.83 14.0364C198.554 13.2704 198.046 11.7257 198.025 10.3301L198.025 10.3235L196.442 10.8095L196.106 9.71484L198.098 9.10318C198.262 7.51488 198.68 6.35122 199.288 5.56165C199.96 4.6887 200.841 4.30717 201.742 4.31742C202.619 4.32741 203.468 4.70673 204.138 5.26188ZM199.298 8.73482C199.475 7.54961 199.81 6.76018 200.195 6.26033C200.65 5.66982 201.191 5.45636 201.729 5.46248C202.289 5.46886 202.893 5.71727 203.408 6.14414C203.77 6.44352 204.068 6.81362 204.266 7.20989L199.298 8.73482ZM195.234 5.73073C195.906 6.28664 196.442 7.05356 196.664 7.90283L196.803 8.43397L190.278 10.437C190.273 10.5529 190.269 10.6714 190.266 10.7926C190.285 11.9904 190.725 13.049 191.515 13.5235C192.273 13.979 193.614 14.0433 195.799 12.6568L196.282 12.35L196.896 13.3168L196.413 13.6237C194.081 15.1033 192.235 15.2918 190.925 14.5052C189.65 13.7392 189.141 12.1946 189.121 10.7989L189.121 10.7923L187.537 11.2784L187.201 10.1837L189.194 9.57203C189.357 7.98374 189.775 6.82008 190.383 6.03051C191.056 5.15756 191.937 4.77602 192.837 4.78628C193.714 4.79627 194.563 5.17559 195.234 5.73073ZM190.394 9.20367L195.361 7.67875C195.163 7.28248 194.865 6.91238 194.504 6.61299C193.988 6.18613 193.384 5.93771 192.824 5.93133C192.287 5.92522 191.745 6.13868 191.291 6.72919C190.906 7.22904 190.57 8.01846 190.394 9.20367ZM182.831 4.90022L181.763 13.7743L184.121 13.3844L185.244 4.90275L186.38 5.05309L185.247 13.6048L185.62 13.0764L186.555 13.7364L184.024 17.3249L183.088 16.6648L184.645 14.4584L181.204 15.0276L176.545 15.9052L177.646 5.24184L178.785 5.35945L177.842 14.4956L180.586 13.9788L181.694 4.76351L182.831 4.90022ZM151.623 4.59085L152.762 4.50694C153.054 6.5978 153.407 9.55729 153.481 12.4296C153.917 12.3052 154.365 12.2118 154.82 12.1552L155.389 12.0846L155.53 13.221L154.962 13.2916C154.465 13.3534 153.974 13.4665 153.495 13.6225C153.487 15.7258 153.299 17.7584 152.763 19.2873C152.477 20.1037 152.076 20.8233 151.506 21.3259C150.919 21.8436 150.185 22.1012 149.321 22.0329C148.027 21.9306 147.105 21.4182 146.715 20.5051C146.345 19.6392 146.545 18.6072 147.002 17.654C147.881 15.823 149.9 13.8637 152.344 12.8312C152.319 11.3385 152.212 9.80443 152.072 8.37137C152.013 8.52337 151.95 8.67456 151.883 8.82422C151.2 10.3342 150.008 11.7593 148.039 12.1848C147.054 12.3976 146.239 12.2486 145.641 11.7352C145.068 11.2431 144.8 10.5044 144.688 9.7639C144.464 8.28408 144.807 6.4387 145.171 5.21094L145.333 4.66197L146.431 4.98734L146.269 5.5363C145.923 6.70402 145.633 8.3584 145.82 9.59246C145.914 10.2089 146.112 10.6306 146.387 10.8664C146.636 11.0807 147.05 11.2267 147.797 11.0655C149.289 10.7432 150.245 9.6661 150.839 8.35223C151.436 7.03218 151.631 5.5452 151.623 4.59085ZM152.345 14.0879C150.343 15.0582 148.733 16.6957 148.035 18.1495C147.637 18.9774 147.587 19.6326 147.768 20.0552C147.928 20.4306 148.357 20.8079 149.412 20.8913C149.971 20.9356 150.397 20.7768 150.748 20.467C151.117 20.1422 151.432 19.6234 151.683 18.9084C152.12 17.6628 152.312 15.9642 152.345 14.0879ZM168.989 6.47734L168.774 7.00803C168.413 7.89944 168.064 9.16726 168.116 10.1326C168.142 10.6147 168.263 10.9306 168.434 11.109C168.582 11.2639 168.858 11.4069 169.436 11.3396C170.592 11.2049 171.403 10.4593 171.963 9.48446C172.527 8.50378 172.791 7.35945 172.857 6.61661L173.999 6.64317C174.068 8.2847 174.12 10.592 173.97 12.8308C174.282 12.7801 174.6 12.7489 174.92 12.7403L175.492 12.7249L175.523 13.8696L174.951 13.885C174.589 13.8948 174.227 13.9392 173.87 14.0137C173.7 15.6511 173.395 17.2261 172.855 18.3922C172.561 19.0262 172.177 19.5844 171.665 19.9545C171.135 20.3379 170.503 20.4924 169.793 20.3666C168.753 20.1819 168.013 19.687 167.757 18.8774C167.515 18.1168 167.772 17.2786 168.215 16.5474C169.056 15.1572 170.795 13.7626 172.801 13.1144C172.879 12.1184 172.912 11.0961 172.92 10.1173C172.25 11.2544 171.18 12.2892 169.569 12.477C168.748 12.5726 168.074 12.3879 167.608 11.9018C167.164 11.4393 167.005 10.8012 166.973 10.1939C166.908 8.98033 167.328 7.52759 167.712 6.57813L167.927 6.04744L168.989 6.47734ZM172.676 14.3762C171.121 14.9977 169.819 16.1077 169.194 17.1403C168.824 17.7526 168.753 18.2302 168.848 18.5314C168.928 18.7836 169.189 19.0963 169.993 19.2391C170.402 19.3115 170.719 19.2256 170.994 19.0264C171.288 18.8139 171.567 18.4472 171.816 17.9107C172.23 17.0159 172.505 15.7745 172.676 14.3762Z" fill="#0F8EFF"/>
<path fill-rule="evenodd" clip-rule="evenodd" d="M147.902 1.71417L137.352 3.74403C141.309 6.84455 142.911 10.636 143.019 13.6606C143.077 15.2916 142.701 16.7404 141.971 17.7171C141.221 18.7215 140.083 19.2239 138.796 18.8217C136.425 18.0809 135.647 15.9582 135.934 14.0793C136.214 12.2432 137.554 10.4088 139.632 10.2803L140.204 10.245L140.274 11.3879L139.703 11.4233C138.343 11.5074 137.295 12.7479 137.066 14.252C136.843 15.7133 137.433 17.196 139.138 17.7287C139.888 17.9633 140.546 17.712 141.054 17.0319C141.582 16.324 141.927 15.1574 141.875 13.7015C141.771 10.8138 140.105 6.94552 135.629 3.90406L134.488 3.12883L147.686 0.589661L147.902 1.71417ZM165.79 1.09206L165.397 12.3222L167.255 12.3872L167.215 13.5317L156.692 13.1632L156.732 12.0188L158.278 12.0729L165.79 1.09206ZM159.633 12.1204L164.252 12.2821L164.508 4.99487L159.633 12.1204ZM204.138 5.26188C204.81 5.81778 205.347 6.5847 205.569 7.43397L205.708 7.96511L199.183 9.96819C199.177 10.0841 199.173 10.2026 199.17 10.3237C199.19 11.5216 199.629 12.5801 200.42 13.0547C201.178 13.5101 202.519 13.5745 204.704 12.188L205.187 11.8812L205.801 12.848L205.317 13.1548C202.986 14.6345 201.14 14.8229 199.83 14.0364C198.554 13.2704 198.046 11.7257 198.025 10.3301L198.025 10.3235L196.442 10.8095L196.106 9.71484L198.098 9.10318C198.262 7.51488 198.68 6.35122 199.288 5.56165C199.96 4.6887 200.841 4.30717 201.742 4.31742C202.619 4.32741 203.468 4.70673 204.138 5.26188ZM199.298 8.73482C199.475 7.54961 199.81 6.76018 200.195 6.26033C200.65 5.66982 201.191 5.45636 201.729 5.46248C202.289 5.46886 202.893 5.71727 203.408 6.14414C203.77 6.44352 204.068 6.81362 204.266 7.20989L199.298 8.73482ZM195.234 5.73073C195.906 6.28664 196.442 7.05356 196.664 7.90283L196.803 8.43397L190.278 10.437C190.273 10.5529 190.269 10.6714 190.266 10.7926C190.285 11.9904 190.725 13.049 191.515 13.5235C192.273 13.979 193.614 14.0433 195.799 12.6568L196.282 12.35L196.896 13.3168L196.413 13.6237C194.081 15.1033 192.235 15.2918 190.925 14.5052C189.65 13.7392 189.141 12.1946 189.121 10.7989L189.121 10.7923L187.537 11.2784L187.201 10.1837L189.194 9.57203C189.357 7.98374 189.775 6.82008 190.383 6.03051C191.056 5.15756 191.937 4.77602 192.837 4.78628C193.714 4.79627 194.563 5.17559 195.234 5.73073ZM190.394 9.20367L195.361 7.67875C195.163 7.28248 194.865 6.91238 194.504 6.61299C193.988 6.18613 193.384 5.93771 192.824 5.93133C192.287 5.92522 191.745 6.13868 191.291 6.72919C190.906 7.22904 190.57 8.01846 190.394 9.20367ZM182.831 4.90022L181.763 13.7743L184.121 13.3844L185.244 4.90275L186.38 5.05309L185.247 13.6048L185.62 13.0764L186.555 13.7364L184.024 17.3249L183.088 16.6648L184.645 14.4584L181.204 15.0276L176.545 15.9052L177.646 5.24184L178.785 5.35945L177.842 14.4956L180.586 13.9788L181.694 4.76351L182.831 4.90022ZM151.623 4.59085L152.762 4.50694C153.054 6.5978 153.407 9.55729 153.481 12.4296C153.917 12.3052 154.365 12.2118 154.82 12.1552L155.389 12.0846L155.53 13.221L154.962 13.2916C154.465 13.3534 153.974 13.4665 153.495 13.6225C153.487 15.7258 153.299 17.7584 152.763 19.2873C152.477 20.1037 152.076 20.8233 151.506 21.3259C150.919 21.8436 150.185 22.1012 149.321 22.0329C148.027 21.9306 147.105 21.4182 146.715 20.5051C146.345 19.6392 146.545 18.6072 147.002 17.654C147.881 15.823 149.9 13.8637 152.344 12.8312C152.319 11.3385 152.212 9.80443 152.072 8.37137C152.013 8.52337 151.95 8.67456 151.883 8.82422C151.2 10.3342 150.008 11.7593 148.039 12.1848C147.054 12.3976 146.239 12.2486 145.641 11.7352C145.068 11.2431 144.8 10.5044 144.688 9.7639C144.464 8.28408 144.807 6.4387 145.171 5.21094L145.333 4.66197L146.431 4.98734L146.269 5.5363C145.923 6.70402 145.633 8.3584 145.82 9.59246C145.914 10.2089 146.112 10.6306 146.387 10.8664C146.636 11.0807 147.05 11.2267 147.797 11.0655C149.289 10.7432 150.245 9.6661 150.839 8.35223C151.436 7.03218 151.631 5.5452 151.623 4.59085ZM152.345 14.0879C150.343 15.0582 148.733 16.6957 148.035 18.1495C147.637 18.9774 147.587 19.6326 147.768 20.0552C147.928 20.4306 148.357 20.8079 149.412 20.8913C149.971 20.9356 150.397 20.7768 150.748 20.467C151.117 20.1422 151.432 19.6234 151.683 18.9084C152.12 17.6628 152.312 15.9642 152.345 14.0879ZM168.989 6.47734L168.774 7.00803C168.413 7.89944 168.064 9.16726 168.116 10.1326C168.142 10.6147 168.263 10.9306 168.434 11.109C168.582 11.2639 168.858 11.4069 169.436 11.3396C170.592 11.2049 171.403 10.4593 171.963 9.48446C172.527 8.50378 172.791 7.35945 172.857 6.61661L173.999 6.64317C174.068 8.2847 174.12 10.592 173.97 12.8308C174.282 12.7801 174.6 12.7489 174.92 12.7403L175.492 12.7249L175.523 13.8696L174.951 13.885C174.589 13.8948 174.227 13.9392 173.87 14.0137C173.7 15.6511 173.395 17.2261 172.855 18.3922C172.561 19.0262 172.177 19.5844 171.665 19.9545C171.135 20.3379 170.503 20.4924 169.793 20.3666C168.753 20.1819 168.013 19.687 167.757 18.8774C167.515 18.1168 167.772 17.2786 168.215 16.5474C169.056 15.1572 170.795 13.7626 172.801 13.1144C172.879 12.1184 172.912 11.0961 172.92 10.1173C172.25 11.2544 171.18 12.2892 169.569 12.477C168.748 12.5726 168.074 12.3879 167.608 11.9018C167.164 11.4393 167.005 10.8012 166.973 10.1939C166.908 8.98033 167.328 7.52759 167.712 6.57813L167.927 6.04744L168.989 6.47734ZM172.676 14.3762C171.121 14.9977 169.819 16.1077 169.194 17.1403C168.824 17.7526 168.753 18.2302 168.848 18.5314C168.928 18.7836 169.189 19.0963 169.993 19.2391C170.402 19.3115 170.719 19.2256 170.994 19.0264C171.288 18.8139 171.567 18.4472 171.816 17.9107C172.23 17.0159 172.505 15.7745 172.676 14.3762Z" stroke="#0F8EFF" stroke-width="0.451742" stroke-linecap="square" mask="url(#path-2-outside-1_133_4)"/>
</svg>
