<svg width="1025" height="1413" viewBox="0 0 1025 1413" fill="none" xmlns="http://www.w3.org/2000/svg">
<path d="M943.772 356.806C892.448 341.12 846.339 297.5 802.048 263.709C740.545 216.785 681.001 166.019 619.386 119.349C600.879 105.331 582.252 92.7643 561.531 84.6655C559.654 83.9316 546.291 76.1368 546.409 83.0265C546.531 90.1931 551.715 97.832 554.278 103.462C574.002 146.782 590.773 192.652 607.837 237.774C625.845 285.39 642.791 333.208 655.864 383.553C665.857 422.038 678.454 463.063 681.95 503.872C683.411 520.918 683.362 530.76 670.097 519.581C609.633 468.626 551.997 413.405 489.482 366.054C444.426 331.927 395.726 290.665 344.485 271.948C337.712 269.474 324.306 261.019 329.155 276.806C344.76 327.612 379.638 369.678 404.726 412.669C422.645 443.376 441.626 474.945 456.372 508.463C462.433 522.24 445.382 515.992 439.019 515.582C398.226 512.953 304.285 466.22 263.476 463.59C255.162 463.054 218.638 453.276 211.815 464.113C202.009 479.688 226.141 516.441 231.902 526.653C249.843 558.454 323.239 630.04 339.991 662.91C341.763 666.387 352.24 684.345 342.919 683.956C294.883 681.956 232.055 695.844 183.34 705.026C179.219 705.803 148.245 697.295 151.039 711.048C153.329 722.323 159.436 733.218 164.013 742.972C175.433 767.306 205.047 744.135 217.846 767.298C229.272 787.975 245.01 810.756 251.452 835.359C253.922 844.793 249.221 847.067 242.581 848.471C223.842 852.432 204.784 854.796 185.964 857.974C179.236 859.11 151.481 848.761 147.144 857.429C138.472 874.757 168.114 920.516 173.121 934.732C175.489 941.456 250.602 1058.26 243.987 1062.08C229.407 1070.51 181.818 1058.58 166.814 1057.61C151.251 1056.61 98.0935 1052.17 82.598 1056.92C70.5001 1060.63 108.351 1150.93 110.2 1157.97C121.099 1199.44 175.308 1289.85 183.916 1332.23" stroke="url(#paint0_linear_1_996)" stroke-opacity="0.1" stroke-width="160.441" stroke-linecap="round"/>
<defs>
<linearGradient id="paint0_linear_1_996" x1="305.299" y1="746.954" x2="705.609" y2="-107.622" gradientUnits="userSpaceOnUse">
<stop stop-color="#0F8EFF"/>
<stop offset="0.69" stop-color="#0F8EFF" stop-opacity="0.515"/>
<stop offset="1" stop-color="#0F8EFF" stop-opacity="0"/>
</linearGradient>
</defs>
</svg>
